HIERARCHY
ROOT hip
{
  OFFSET 0 0 0
  CHANNELS 6 Xposition Yposition Zposition Zrotation Yrotation Xrotation
  JOINT abdomen
  {
    OFFSET 0 20.6881 -0.73152
    CHANNELS 3 Zrotation Xrotation Yrotation
    JOINT chest
    {
      OFFSET 0 11.7043 -0.48768
      CHANNELS 3 Zrotation Xrotation Yrotation
      JOINT neck
      {
        OFFSET 0 22.1894 -2.19456
        CHANNELS 3 Zrotation Xrotation Yrotation
        JOINT head
        {
          OFFSET -0.24384 7.07133 1.2192
          CHANNELS 3 Zrotation Xrotation Yrotation
          JOINT leftEye
          {
            OFFSET 4.14528 8.04674 8.04672
            CHANNELS 3 Zrotation Xrotation Yrotation
            End Site
            {
              OFFSET 1 0 0
            }
          }
          JOINT rightEye
          {
            OFFSET -3.6576 8.04674 8.04672
            CHANNELS 3 Zrotation Xrotation Yrotation
            End Site
            {
              OFFSET 1 0 0
            }
          }
        }
      }
      JOINT rCollar
      {
        OFFSET -2.68224 19.2634 -4.8768
        CHANNELS 3 Zrotation Xrotation Yrotation
        JOINT rShldr
        {
          OFFSET -8.77824 -1.95073 1.46304
          CHANNELS 3 Zrotation Xrotation Yrotation
          JOINT rForeArm
          {
            OFFSET -28.1742 -1.7115 0.48768
            CHANNELS 3 Zrotation Xrotation Yrotation
            JOINT rHand
            {
              OFFSET -22.5879 0.773209 7.07136
              CHANNELS 3 Zrotation Xrotation Yrotation
              JOINT rThumb1
              {
                OFFSET -1.2192 -0.487915 3.41376
                CHANNELS 3 Zrotation Xrotation Yrotation
                JOINT rThumb2
                {
                  OFFSET -3.37035 -0.52449 3.41376
                  CHANNELS 3 Zrotation Xrotation Yrotation
                  End Site
                  {
                    OFFSET -1.78271 -1.18214 1.43049
                  }
                }
              }
              JOINT rIndex1
              {
                OFFSET -7.75947 0.938293 5.60832
                CHANNELS 3 Zrotation Xrotation Yrotation
                JOINT rIndex2
                {
                  OFFSET -2.54057 -0.884171 1.56538
                  CHANNELS 3 Zrotation Xrotation Yrotation
                  End Site
                  {
                    OFFSET -1.62519 -0.234802 1.16502
                  }
                }
              }
              JOINT rMid1
              {
                OFFSET -8.24714 1.18213 3.41376
                CHANNELS 3 Zrotation Xrotation Yrotation
                JOINT rMid2
                {
                  OFFSET -3.10165 -0.590103 1.0647
                  CHANNELS 3 Zrotation Xrotation Yrotation
                  End Site
                  {
                    OFFSET -2.48547 -0.328903 0.83742
                  }
                }
              }
              JOINT rRing1
              {
                OFFSET -8.82822 0.546677 1.51678
                CHANNELS 3 Zrotation Xrotation Yrotation
                JOINT rRing2
                {
                  OFFSET -2.60934 -0.819778 -0.0198488
                  CHANNELS 3 Zrotation Xrotation Yrotation
                  End Site
                  {
                    OFFSET -2.33842 -0.294052 0.168128
                  }
                }
              }
              JOINT rPinky1
              {
                OFFSET -8.27202 -0.0477905 -0.4584
                CHANNELS 3 Zrotation Xrotation Yrotation
                JOINT rPinky2
                {
                  OFFSET -1.82734 -0.647385 -0.700984
                  CHANNELS 3 Zrotation Xrotation Yrotation
                  End Site
                  {
                    OFFSET -1.69225 -0.51767 -0.607171
                  }
                }
              }
            }
          }
        }
      }
      JOINT lCollar
      {
        OFFSET 2.68224 19.2634 -4.8768
        CHANNELS 3 Zrotation Xrotation Yrotation
        JOINT lShldr
        {
          OFFSET 8.77824 -1.95073 1.46304
          CHANNELS 3 Zrotation Xrotation Yrotation
          JOINT lForeArm
          {
            OFFSET 28.1742 -1.7115 0.48768
            CHANNELS 3 Zrotation Xrotation Yrotation
            JOINT lHand
            {
              OFFSET 22.5879 0.773209 7.07136
              CHANNELS 3 Zrotation Xrotation Yrotation
              JOINT lThumb1
              {
                OFFSET 1.2192 -0.487915 3.41376
                CHANNELS 3 Zrotation Xrotation Yrotation
                JOINT lThumb2
                {
                  OFFSET 3.37035 -0.52449 3.41376
                  CHANNELS 3 Zrotation Xrotation Yrotation
                  End Site
                  {
                    OFFSET 1.78271 -1.18214 1.43049
                  }
                }
              }
              JOINT lIndex1
              {
                OFFSET 7.75947 0.938293 5.60832
                CHANNELS 3 Zrotation Xrotation Yrotation
                JOINT lIndex2
                {
                  OFFSET 2.54057 -0.884171 1.56538
                  CHANNELS 3 Zrotation Xrotation Yrotation
                  End Site
                  {
                    OFFSET 1.62519 -0.234802 1.16502
                  }
                }
              }
              JOINT lMid1
              {
                OFFSET 8.24714 1.18213 3.41376
                CHANNELS 3 Zrotation Xrotation Yrotation
                JOINT lMid2
                {
                  OFFSET 3.10165 -0.590103 1.0647
                  CHANNELS 3 Zrotation Xrotation Yrotation
                  End Site
                  {
                    OFFSET 2.48547 -0.328903 0.83742
                  }
                }
              }
              JOINT lRing1
              {
                OFFSET 8.82822 0.546677 1.51678
                CHANNELS 3 Zrotation Xrotation Yrotation
                JOINT lRing2
                {
                  OFFSET 2.60934 -0.819778 -0.0198488
                  CHANNELS 3 Zrotation Xrotation Yrotation
                  End Site
                  {
                    OFFSET 2.33842 -0.294052 0.168128
                  }
                }
              }
              JOINT lPinky1
              {
                OFFSET 8.27202 -0.0477905 -0.4584
                CHANNELS 3 Zrotation Xrotation Yrotation
                JOINT lPinky2
                {
                  OFFSET 1.82734 -0.647385 -0.700984
                  CHANNELS 3 Zrotation Xrotation Yrotation
                  End Site
                  {
                    OFFSET 1.69225 -0.51767 -0.607171
                  }
                }
              }
            }
          }
        }
      }
    }
  }
  JOINT rButtock
  {
    OFFSET -8.77824 4.35084 1.2192
    CHANNELS 3 Zrotation Xrotation Yrotation
    JOINT rThigh
    {
      OFFSET 0 -1.70687 -2.19456
      CHANNELS 3 Zrotation Xrotation Yrotation
      JOINT rShin
      {
        OFFSET 0 -36.8199 0.73152
        CHANNELS 3 Zrotation Xrotation Yrotation
        JOINT rFoot
        {
          OFFSET 0.73152 -45.1104 -5.12064
          CHANNELS 3 Zrotation Xrotation Yrotation
          End Site
          {
            OFFSET -1.1221 -3.69964 12.103
          }
        }
      }
    }
  }
  JOINT lButtock
  {
    OFFSET 8.77824 4.35084 1.2192
    CHANNELS 3 Zrotation Xrotation Yrotation
    JOINT lThigh
    {
      OFFSET 0 -1.70687 -2.19456
      CHANNELS 3 Zrotation Xrotation Yrotation
      JOINT lShin
      {
        OFFSET 0 -36.8199 0.73152
        CHANNELS 3 Zrotation Xrotation Yrotation
        JOINT lFoot
        {
          OFFSET -0.73152 -45.1104 -5.12064
          CHANNELS 3 Zrotation Xrotation Yrotation
          End Site
          {
            OFFSET 1.1221 -3.69964 12.103
          }
        }
      }
    }
  }
}
MOTION
Frames:	4
Frame Time:	0.03333
0.011043348670852804 62.309152024250025 0.11254065342832986 -2.599421501159668 -3.128638982772827 7.020993709564209 -2.7229537963867188 14.12082290649414 3.820948600769043 2.899813175201416 -9.411182403564453 1.4551193714141846 -5.192586421966553 14.566523551940918 -3.5902657508850098 9.172013282775879 -22.251676559448242 -5.212244510650635 -0.029703311622142792 0.005511792376637459 -0.019222509115934372 0.026283394545316696 0.027117272838950157 0.042317770421504974 0.21590526401996613 0.01773723214864731 -0.005828732158988714 46.354652404785156 39.83351135253906 17.57329750061035 -25.71305274963379 -26.017414093017578 68.01129150390625 -1.6119987964630127 -9.639802932739258 -1.6906836032867432 -0.02359565533697605 -0.026428334414958954 -0.0014014597982168198 0.031559281051158905 -0.04140900820493698 0.020529037341475487 -0.047042883932590485 0.040334608405828476 -0.01312911044806242 7.818239212036133 5.474244594573975 0.39461109042167664 -0.06781458109617233 0.25453102588653564 -0.09074660390615463 2.967273235321045 0.9308050274848938 0.018108591437339783 -0.003459018422290683 -0.024559851735830307 0.008493885397911072 10.24482250213623 0.8236039876937866 -0.07397352904081345 0.04838262125849724 0.04379451647400856 0.05560918524861336 2.244374990463257 -0.7545018196105957 -0.31963205337524414 0.07618547230958939 -0.010428941808640957 0.035377636551856995 -55.364994049072266 39.6506462097168 -25.043811798095703 24.901227951049805 -23.263147354125977 -64.61016082763672 1.9950928688049316 -14.120380401611328 2.133009672164917 0.027358250692486763 0.007418646011501551 -0.15422354638576508 -0.09023100137710571 0.01136743277311325 0.04586746543645859 -0.006108212284743786 -0.05312175303697586 0.13412296772003174 -7.798952102661133 5.334680557250977 -0.3343028724193573 0.02820938639342785 0.0010808405932039022 -0.004710161592811346 -2.975832223892212 1.03848397731781 -0.1708550900220871 -0.023280438035726547 0.0350816585123539 -0.010719935409724712 -10.308981895446777 0.6815661191940308 -0.06570563465356827 -0.054337259382009506 -0.038541506975889206 -0.1149011179804802 -2.2762649059295654 -0.7660742402076721 0.19296328723430634 -0.024138281121850014 -0.051685087382793427 0.058561086654663086 -24.50166130065918 -43.673789978027344 -18.68406105041504 -1.3606001138687134 65.56014251708984 2.839522123336792 -4.42689323425293 -11.966534614562988 -9.346512794494629 -0.008761517703533173 -0.02798623777925968 -0.0064030797220766544 29.627164840698242 -45.53740692138672 21.518573760986328 1.6958011388778687 65.86039733886719 -2.8070242404937744 4.824169158935547 -12.422019958496094 13.22516918182373
0.014975029672694285 62.51082701987299 0.2285102219025648 -3.1964704990386963 0.6663253307342529 10.479690551757812 -2.6810407638549805 14.571149826049805 3.824291229248047 2.605658769607544 -9.799881935119629 1.3151803016662598 -4.802302837371826 14.414288520812988 -3.5838193893432617 8.953872680664062 -21.820585250854492 -5.44200325012207 0.06583991646766663 -0.1352972537279129 -0.11967552453279495 0.10828232765197754 -0.028728947043418884 -0.043162450194358826 -0.15585580468177795 0.14538417756557465 0.16417425870895386 46.9307975769043 39.69281005859375 17.82246971130371 -25.767812728881836 -26.50887107849121 68.83502960205078 -1.5872136354446411 -11.460542678833008 -1.5719878673553467 0.16270630061626434 -0.12954320013523102 0.1486356556415558 0.059486858546733856 -0.11747600883245468 0.0002936932723969221 0.056745823472738266 0.14313744008541107 -0.05058549717068672 7.814852714538574 5.598272323608398 0.4303041100502014 -0.020669719204306602 0.014439156278967857 -0.1440717726945877 2.904524087905884 1.017288088798523 0.20645011961460114 0.155104860663414 0.007020522840321064 0.04442247375845909 10.266416549682617 0.6418769359588623 0.08529543876647949 0.15715956687927246 0.1049424260854721 0.12119849771261215 2.209906578063965 -0.8605960011482239 -0.2195160835981369 0.1666833460330963 -0.08735433220863342 9.969703387469053e-05 -54.59099578857422 40.61747741699219 -26.450239181518555 24.814905166625977 -23.45025634765625 -65.93101501464844 1.9697368144989014 -14.29591178894043 2.1447665691375732 0.02677726186811924 -0.1630212664604187 0.07309854030609131 0.2209290862083435 0.08166968077421188 -0.13989518582820892 -0.14947955310344696 0.07960175722837448 -0.14332307875156403 -7.869460105895996 5.407238483428955 -0.3821212649345398 0.14948390424251556 0.07134347409009933 -0.028723599389195442 -2.905266523361206 0.8492273092269897 -0.22918207943439484 0.16242928802967072 -0.0023473864421248436 -0.040641553699970245 -10.113883972167969 0.9104345440864563 -0.1654367446899414 0.05592216178774834 -0.11252584308385849 -0.17346005141735077 -2.2606630325317383 -0.6401798129081726 0.21497373282909393 0.041069574654102325 -0.1773330718278885 0.09772756695747375 -25.384185791015625 -41.19127655029297 -19.22902488708496 -1.4614603519439697 64.21678161621094 2.3691964149475098 -4.65375280380249 -11.640680313110352 -9.689311027526855 -0.19365942478179932 -0.04488423094153404 0.045007795095443726 30.714570999145508 -42.28924560546875 21.150835037231445 1.7058405876159668 67.11839294433594 -2.729764223098755 5.180429935455322 -12.095399856567383 13.125295639038086
0.06740174747271388 62.09513487679684 0.39091376423207363 -8.9772310256958 -17.79701805114746 7.4156174659729 4.11820650100708 10.875221252441406 5.655542850494385 1.2689553499221802 -7.895039081573486 1.8557040691375732 -4.36067008972168 14.258125305175781 -2.8524599075317383 8.577607154846191 -22.06414031982422 -3.119124412536621 -0.04699872061610222 0.027521463111042976 -0.11837383359670639 0.08634595572948456 -0.20070280134677887 -0.12450015544891357 0.2616727948188782 0.07101790606975555 0.027229981496930122 65.47843170166016 45.29793167114258 -2.2997488975524902 -23.57054328918457 -18.63534164428711 55.29231262207031 -1.5937515497207642 -11.185478210449219 -1.4150422811508179 -0.030590364709496498 -0.05481361970305443 0.05384417250752449 -0.002082998165860772 0.297225683927536 0.032639387995004654 0.07457592338323593 0.10451340675354004 -0.14385241270065308 7.4258317947387695 5.505893707275391 0.7688038945198059 -0.12527257204055786 0.29348310828208923 -0.42255571484565735 2.9424052238464355 0.7721166610717773 0.1604732722043991 0.15443198382854462 -0.3078995943069458 0.2775542438030243 10.594342231750488 1.0585640668869019 -0.24720360338687897 0.004451782442629337 0.4087694585323334 0.08324576169252396 2.2530012130737305 -0.9774240255355835 -0.31962764263153076 0.23133327066898346 0.08346467465162277 -0.14309613406658173 -61.35963821411133 27.43914794921875 -24.280895233154297 18.128873825073242 -9.23042106628418 -37.14736557006836 0.7586787939071655 13.743378639221191 -2.2056474685668945 0.20565268397331238 0.028758544474840164 0.1539538949728012 -0.01283036544919014 0.09448651224374771 -0.02644047886133194 -0.253393292427063 0.12955161929130554 0.46513181924819946 -7.896556377410889 5.261804103851318 -0.35507288575172424 0.030288560315966606 -0.1415228545665741 -0.35923102498054504 -2.8471715450286865 1.309413194656372 -0.278330534696579 0.21215811371803284 0.18988724052906036 -0.03905939310789108 -10.2628812789917 0.8772814869880676 -0.44308164715766907 -0.15067635476589203 0.14401564002037048 -0.2892421782016754 -2.4572556018829346 -1.0327630043029785 0.1546492874622345 0.0789397731423378 -0.2969217002391815 -0.2322867065668106 -8.800312042236328 -13.142539978027344 -6.152311325073242 -0.13608603179454803 46.40805435180664 1.2804843187332153 -8.269152641296387 -15.377676010131836 -21.832035064697266 -0.14737223088741302 -0.05615648254752159 -0.031348951160907745 43.834163665771484 -54.17753601074219 32.13117980957031 1.932534098625183 68.08341217041016 -2.3533496856689453 2.204683542251587 -4.668799877166748 5.520403861999512
0.22289964838622245 61.88132946520793 0.921779331857325 -9.385943412780762 -20.766063690185547 12.834076881408691 6.475819110870361 7.547174453735352 7.968039035797119 0.4453010857105255 -7.157559871673584 2.5057735443115234 -6.863117218017578 14.583748817443848 -6.358176231384277 10.551553726196289 -21.12544822692871 -10.242401123046875 0.4617942273616791 -0.12170148640871048 0.05983145162463188 0.11849219352006912 -0.19832868874073029 -0.042988598346710205 0.29269519448280334 0.1805252581834793 0.4415488839149475 67.57081604003906 39.84069061279297 -3.3370168209075928 -20.020009994506836 -12.798426628112793 37.411861419677734 -0.599886953830719 6.575660705566406 1.9035601615905762 0.6160286664962769 -0.14683526754379272 -0.13159413635730743 0.14078225195407867 0.09675536304712296 0.3636891543865204 0.2699297070503235 0.44023799896240234 0.17727407813072205 7.314093589782715 5.533361434936523 1.2430400848388672 -0.018905408680438995 -0.023532778024673462 -0.40455520153045654 3.3829965591430664 0.8010674715042114 0.5077037215232849 0.3571343421936035 0.008778637275099754 0.7840300798416138 10.544466018676758 0.7811239957809448 -0.5021693706512451 0.2006915956735611 0.6505375504493713 0.3704107403755188 2.498319149017334 -0.8410440683364868 -0.0647115558385849 -0.029193436726927757 0.00827086716890335 0.22252461314201355 -70.05598449707031 24.013349533081055 -11.237415313720703 13.529484748840332 -6.73054838180542 -22.73834800720215 0.05417754873633385 24.416481018066406 -3.6026101112365723 -0.0766403004527092 -0.587472677230835 0.27436304092407227 -0.12046217173337936 0.5032610297203064 -0.07941891998052597 0.013265674002468586 0.18240296840667725 0.28288936614990234 -7.8525543212890625 5.667304039001465 -0.4562115967273712 -0.21805381774902344 -0.08591406047344208 -0.42470839619636536 -2.9077634811401367 0.7914490103721619 -0.38366684317588806 0.2866804301738739 0.35932767391204834 -0.2056574821472168 -9.910786628723145 0.886462926864624 -1.0299394130706787 -0.07109220325946808 -0.2133236676454544 -0.3961152136325836 -2.599965810775757 -0.8158628940582275 0.3927091062068939 0.09816400706768036 -0.5398548245429993 -0.5474179983139038 -5.43491268157959 2.0528197288513184 -5.822796821594238 -0.19612528383731842 36.8741569519043 1.9363429546356201 -10.499838829040527 -17.403352737426758 -28.496055603027344 -0.23528920114040375 0.0592079684138298 0.34388455748558044 56.26308822631836 -58.89677810668945 46.08717346191406 2.8709630966186523 71.74238586425781 -3.1804065704345703 0.6603714823722839 -4.455458164215088 1.7062498331069946
